{
    "asset" : {
        "generator" : "Khronos glTF Blender I/O v1.4.40",
        "version" : "2.0"
    },
    "scene" : 0,
    "scenes" : [
        {
            "name" : "Scene",
            "nodes" : [
                3
            ]
        }
    ],
    "nodes" : [
        {
            "mesh" : 0,
            "name" : "pCylinder5"
        },
        {
            "mesh" : 1,
            "name" : "pCylinder7"
        },
        {
            "mesh" : 2,
            "name" : "pCylinder8"
        },
        {
            "children" : [
                0,
                1,
                2
            ],
            "name" : "group1",
            "rotation" : [
                0.7071068286895752,
                0,
                0,
                0.7071067094802856
            ],
            "scale" : [
                0.009999999776482582,
                0.009999999776482582,
                0.009999999776482582
            ],
            "translation" : [
                0.03775664046406746,
                -0.00011357881885487586,
                0.00900717917829752
            ]
        }
    ],
    "materials" : [
        {
            "doubleSided" : true,
            "name" : "Vidrio",
            "pbrMetallicRoughness" : {
                "baseColorFactor" : [
                    0.041999999433755875,
                    0.003543400438502431,
                    0,
                    0.7337661981582642
                ],
                "metallicFactor" : 0.5,
                "roughnessFactor" : 0.5527864098548889
            }
        },
        {
            "doubleSided" : true,
            "name" : "Pastillas",
            "pbrMetallicRoughness" : {}
        }
    ],
    "meshes" : [
        {
            "name" : "Mesh.002",
            "primitives" : [
                {
                    "attributes" : {
                        "POSITION" : 0,
                        "NORMAL" : 1,
                        "TEXCOORD_0" : 2
                    },
                    "indices" : 3,
                    "material" : 0
                }
            ]
        },
        {
            "name" : "Mesh.001",
            "primitives" : [
                {
                    "attributes" : {
                        "POSITION" : 4,
                        "NORMAL" : 5,
                        "TEXCOORD_0" : 6
                    },
                    "indices" : 7,
                    "material" : 1
                }
            ]
        },
        {
            "name" : "Mesh",
            "primitives" : [
                {
                    "attributes" : {
                        "POSITION" : 8,
                        "NORMAL" : 9,
                        "TEXCOORD_0" : 10
                    },
                    "indices" : 11,
                    "material" : 1
                }
            ]
        }
    ],
    "accessors" : [
        {
            "bufferView" : 0,
            "componentType" : 5126,
            "count" : 500,
            "max" : [
                2.000000476837158,
                2.0000009536743164,
                0
            ],
            "min" : [
                -2,
                -2.000000238418579,
                -4.7146711349487305
            ],
            "type" : "VEC3"
        },
        {
            "bufferView" : 1,
            "componentType" : 5126,
            "count" : 500,
            "type" : "VEC3"
        },
        {
            "bufferView" : 2,
            "componentType" : 5126,
            "count" : 500,
            "type" : "VEC2"
        },
        {
            "bufferView" : 3,
            "componentType" : 5123,
            "count" : 2160,
            "type" : "SCALAR"
        },
        {
            "bufferView" : 4,
            "componentType" : 5126,
            "count" : 290,
            "max" : [
                1.7784334421157837,
                1.7784340381622314,
                -4.2062273025512695
            ],
            "min" : [
                -1.778433084487915,
                -1.7784334421157837,
                -5.671733856201172
            ],
            "type" : "VEC3"
        },
        {
            "bufferView" : 5,
            "componentType" : 5126,
            "count" : 290,
            "type" : "VEC3"
        },
        {
            "bufferView" : 6,
            "componentType" : 5126,
            "count" : 290,
            "type" : "VEC2"
        },
        {
            "bufferView" : 7,
            "componentType" : 5123,
            "count" : 960,
            "type" : "SCALAR"
        },
        {
            "bufferView" : 8,
            "componentType" : 5126,
            "count" : 14,
            "max" : [
                1.6349132061004639,
                -1.1878337860107422,
                -0.6286577582359314
            ],
            "min" : [
                -1.6349128484725952,
                -2.0208635330200195,
                -3.577564001083374
            ],
            "type" : "VEC3"
        },
        {
            "bufferView" : 9,
            "componentType" : 5126,
            "count" : 14,
            "type" : "VEC3"
        },
        {
            "bufferView" : 10,
            "componentType" : 5126,
            "count" : 14,
            "type" : "VEC2"
        },
        {
            "bufferView" : 11,
            "componentType" : 5123,
            "count" : 36,
            "type" : "SCALAR"
        }
    ],
    "bufferViews" : [
        {
            "buffer" : 0,
            "byteLength" : 6000,
            "byteOffset" : 0
        },
        {
            "buffer" : 0,
            "byteLength" : 6000,
            "byteOffset" : 6000
        },
        {
            "buffer" : 0,
            "byteLength" : 4000,
            "byteOffset" : 12000
        },
        {
            "buffer" : 0,
            "byteLength" : 4320,
            "byteOffset" : 16000
        },
        {
            "buffer" : 0,
            "byteLength" : 3480,
            "byteOffset" : 20320
        },
        {
            "buffer" : 0,
            "byteLength" : 3480,
            "byteOffset" : 23800
        },
        {
            "buffer" : 0,
            "byteLength" : 2320,
            "byteOffset" : 27280
        },
        {
            "buffer" : 0,
            "byteLength" : 1920,
            "byteOffset" : 29600
        },
        {
            "buffer" : 0,
            "byteLength" : 168,
            "byteOffset" : 31520
        },
        {
            "buffer" : 0,
            "byteLength" : 168,
            "byteOffset" : 31688
        },
        {
            "buffer" : 0,
            "byteLength" : 112,
            "byteOffset" : 31856
        },
        {
            "buffer" : 0,
            "byteLength" : 72,
            "byteOffset" : 31968
        }
    ],
    "buffers" : [
        {
            "byteLength" : 32040,
            "uri" : "data:application/octet-stream;base64,"
        }
    ]
}
